<?xml version="1.0" encoding="UTF-8"?>
<svg width="59px" height="30px" viewBox="0 0 59 30" version="1.1" xmlns="http://www.w3.org/2000/svg" xmlns:xlink="http://www.w3.org/1999/xlink">
    <!-- Generator: Sketch 51.2 (57519) - http://www.bohemiancoding.com/sketch -->
    <title>Group</title>
    <desc>Created with Sketch.</desc>
    <defs></defs>
    <g id="Page-1" stroke="none" stroke-width="1" fill="none" fill-rule="evenodd">
        <g id="Goodt_logo_1" transform="translate(-1.000000, -2.000000)">
            <g id="Group" transform="translate(1.000000, 2.000000)">
                <path d="M48.9956332,8.09121466 L48.9956332,12.969829 C48.9940197,12.9978649 48.9940197,13.0242809 48.9940197,13.0523167 C48.9940197,10.2182023 46.7063209,7.91975977 43.8815738,7.91975977 L43.8815738,7.90169222 C41.0585644,7.90169222 38.7692521,10.2000101 38.7692521,13.0341246 C38.7692521,14.3678841 38.4031111,15.6176607 37.7708662,16.686014 C36.5292137,18.7749975 34.2562846,20.1746725 31.6582968,20.1746725 C29.0586955,20.1746725 26.7840288,18.7749975 25.5458515,16.686014 C26.1780964,15.6176607 26.5443616,14.3678841 26.5443616,13.0341246 C26.5443616,15.8699835 28.8336739,18.1681768 31.6582968,18.1681768 C34.46815,18.1681768 36.7706185,15.881447 36.7706185,13.0341246 C36.7706185,11.700365 37.1335326,10.4522083 37.7708662,9.38385495 C39.0090435,7.2949961 41.283586,5.89519651 43.8815738,5.89519651 L43.8815738,5.91326406 C45.8901367,5.91326406 47.7016039,6.74761141 48.9956332,8.09121466" id="Fill-1" fill="#D8232A"></path>
                <path d="M58.9519651,8.12227074 L55.0218341,8.12227074 L55.0218341,6.15720524 L56.9870216,6.15720524 C58.0719994,6.15720524 58.9519651,7.03717092 58.9519651,8.12227074" id="Fill-2" fill="#D8232A"></path>
                <path d="M54.8908297,19.9126638 C53.8058957,19.9126638 52.9290313,19.0188933 52.9290313,17.9167707 C52.9248894,11.5987768 52.925864,15.1494412 52.925864,0.786026201 C54.0089706,0.786026201 54.8874187,1.67979663 54.8874187,2.78179536 C54.8874187,20.009713 54.8864442,17.1062915 54.8908297,19.9126638" id="Fill-3" fill="#892B7D"></path>
                <path d="M51.2227074,0.786026201 L51.2227074,13.0438714 C51.2227074,16.9815778 48.0047889,20.1746725 44.0352241,20.1746725 C41.4099183,20.1746725 39.1114588,18.7769081 37.860262,16.6907761 C38.499155,15.623881 38.869146,14.3758104 38.869146,13.0438714 C38.869146,15.8758594 41.1825306,18.1709157 44.0352241,18.1709157 C46.8765044,18.1709157 49.2030581,15.8873073 49.2030581,13.0438714 L49.2030581,2.7896586 C49.2030581,1.68157597 50.1074667,0.786026201 51.2227074,0.786026201" id="Fill-4" fill="#892B7D"></path>
                <path d="M14.2788451,25.9330711 C14.2987671,27.064366 13.8455416,28.0905598 13.1041942,28.8293697 C12.3810255,29.5534134 11.3743419,30 10.2689199,30 L6.01333146,30 C4.70034709,30 3.53715126,29.3728678 2.80564029,28.4008997 C2.46298188,27.9477365 2.40695125,27.3402099 2.6623264,26.8328209 C2.91608288,26.3238189 3.43666967,26.0036762 4.00668792,26.0036762 L4.00830658,26.0036762 C4.00830658,27.1070517 4.90790944,28.0018381 6.01333146,28.0018381 L10.2079088,28.0018381 C11.3133308,28.0018381 12.2738203,27.1020882 12.2738203,26.0020631 C12.2738203,24.9114685 11.385548,24.0055143 10.2689199,24.0055143 L2.95891519,24.0055143 C1.32456404,24.0055143 0,22.683871 0,21.055114 C0,21.055114 0,21.055114 0,21.0535009 C0,20.2242321 0.954761894,19.7466238 1.62439015,20.2489252 C1.78575836,20.3720189 1.95223158,20.48866 2.12194212,20.5987245 C2.04611401,20.7333582 2.00502488,20.8892106 2.00502488,21.055114 C2.00502488,21.5886852 2.43658522,22.0073524 2.95891519,22.0073524 L10.1766561,22.0073524 C12.3810255,22.0073524 14.2409933,23.7378601 14.2788451,25.9330711" id="Fill-5" fill="#892B7D"></path>
                <path d="M13.3624454,16.686014 C13.997667,15.6176607 14.362907,14.3678841 14.362907,13.0341246 C14.362907,15.8698589 16.6566938,18.1681768 19.4852207,18.1681768 C22.3039234,18.1681768 24.6075344,15.881447 24.6075344,13.0341246 C24.6075344,11.700365 24.9728988,10.4522083 25.6113537,9.38385495 C26.851951,7.2949961 29.1309391,5.89519651 31.7357457,5.89519651 C34.3388112,5.89519651 36.6161827,7.2949961 37.860262,9.38385495 C37.2218071,10.4522083 36.8580594,11.700365 36.8580594,13.0341246 C36.8580594,10.2000101 34.562656,7.90169222 31.7357457,7.90169222 C28.9054777,7.90169222 26.6118153,10.2000101 26.6118153,13.0341246 C26.6118153,14.3678841 26.2448343,15.6176607 25.6113537,16.686014 C24.3673988,18.7748729 22.0900273,20.1746725 19.4852207,20.1746725 C16.8804142,20.1746725 14.603167,18.7748729 13.3624454,16.686014" id="Fill-6" fill="#892B7D"></path>
                <path d="M23.077389,3.53234887 C23.4679564,3.13827598 23.6469665,2.57829088 23.5586416,2.02784385 C23.4701925,1.47727132 23.1249677,1.00312885 22.631044,0.753884021 C21.6748745,0.271458488 20.5960936,0 19.4548268,0 C18.3121936,0 17.2322947,0.272085993 16.275504,0.755641034 C15.7824499,1.00488586 15.4380947,1.47814983 15.3497698,2.02771835 C15.2613207,2.57741238 15.4395854,3.13676997 15.8290348,3.53071736 L15.8353703,3.5371179 C16.7607318,2.60050454 18.0412561,2.0210668 19.4548268,2.0210668 C20.8651677,2.0210668 22.147307,2.59887303 23.0742834,3.53548639 L23.077389,3.53234887" id="Fill-7" fill="#892B7D"></path>
                <path d="M35.2607456,3.53234887 C35.6514352,3.13827598 35.8304443,2.57829088 35.7419957,2.02784385 C35.653547,1.47727132 35.3084482,1.00312885 34.8146513,0.753884021 C33.8582382,0.271458488 32.7797112,0 31.6383261,0 C30.4956987,0 29.4156811,0.272211494 28.458771,0.755766535 C27.9658437,1.00488586 27.6214903,1.47814983 27.5331658,2.02784385 C27.4447172,2.57753788 27.6231052,3.13689547 28.0126768,3.53084286 L28.0188881,3.5371179 C28.9442448,2.60050454 30.2247626,2.0210668 31.6383261,2.0210668 C33.0486597,2.0210668 34.3307925,2.59887303 35.2577641,3.53548639 L35.2607456,3.53234887" id="Fill-8" fill="#D8232A"></path>
                <path d="M12.3564734,12.9829567 C12.3564734,10.1691556 10.0521507,7.88731077 7.21250817,7.88731077 C4.37299043,7.88731077 2.0686678,10.1691556 2.0686678,12.9829567 C2.0686678,15.7542013 4.30195568,18.0082112 7.0820489,18.0786026 C3.88573443,18.0213245 1.20139457,15.8884274 0.344108643,12.9829567 C0.251601163,12.6604428 0.178943466,12.3281557 0.131004367,11.9877037 C0.616637429,8.54532826 3.60321834,5.89519651 7.21250817,5.89519651 C9.82581328,5.89519651 12.1136569,7.28496311 13.3624454,9.35885018 C12.7232574,10.4195462 12.3564734,11.6587568 12.3564734,12.9829567" id="Fill-9" fill="#892B7D"></path>
                <path d="M0.072502307,12.0316866 C0.120338881,12.3745964 0.192841188,12.7092824 0.285150826,13.0341246 C1.1406033,15.9605705 3.81920228,18.1088654 7.00868092,18.1665569 C7.05315398,18.1681768 7.09438811,18.1681768 7.13886118,18.1681768 C7.18345882,18.1681768 7.22793188,18.1681768 7.27240495,18.1665569 C10.0333476,18.0972772 12.2718252,15.8369635 12.2718252,13.0341246 C12.2718252,11.700365 12.6378248,10.4522083 13.2756458,9.38385495 C14.5405744,7.26696023 16.8282588,5.89519651 19.4090669,5.89519651 C22.0184025,5.89519651 24.2997337,7.2949961 25.5458515,9.38385495 C24.9062865,10.4522083 24.5402869,11.700365 24.5402869,13.0341246 C24.5402869,10.2000101 22.2442559,7.90169222 19.4090669,7.90169222 C16.5756219,7.90169222 14.2778469,10.2000101 14.2778469,13.0341246 C14.2778469,14.3678841 13.9119719,15.6176607 13.2756458,16.686014 C12.029528,18.7748729 9.74657732,20.1746725 7.13886118,20.1746725 C3.19782512,20.1746725 0,16.9778363 0,13.0341246 C0,12.6944545 0.0246657333,12.3597686 0.072502307,12.0316866" id="Fill-10" fill="#D8232A"></path>
            </g>
        </g>
    </g>
</svg>