<svg width="1600" height="574" viewBox="0 0 1600 574" fill="none" xmlns="http://www.w3.org/2000/svg">
<path fill-rule="evenodd" clip-rule="evenodd" d="M1671.14 -180.531C1682.58 -178.96 1692.32 -173.397 1699.81 -163.243C1714.67 -143.069 1718.47 -115.201 1713.59 -82.6075C1708.71 -50.0027 1695.12 -12.5334 1675.02 27.0042C1634.83 106.085 1568.5 193.619 1493.24 267.357C1465.3 294.729 1436.12 320.213 1406.58 342.664C1432.2 346.371 1465.68 343.703 1508.36 332.991C1571.36 317.176 1654.23 283.872 1761.04 227.964L1761.96 229.736C1655.08 285.679 1572.07 319.061 1508.84 334.931C1465.01 345.933 1430.61 348.539 1404.35 344.349C1355.03 381.548 1304.75 410.225 1257.61 425.059C1219.54 437.036 1183.44 440.011 1151.52 431.089C1119.56 422.16 1091.89 401.342 1070.65 365.935C1058.95 346.42 1049.31 328.472 1041.45 312.049C1032.71 333.864 1020.32 358.041 1003.32 384.441C962.21 448.289 883.311 465.767 786.445 462.872C711.138 460.621 624.685 446.043 536.179 431.118C510.802 426.839 485.256 422.531 459.757 418.478C345.242 400.273 231.631 387.186 137.948 404.589C91.1248 413.288 49.3256 429.596 14.892 456.654C-19.5334 483.706 -46.6498 521.544 -64.0519 573.392L-65.948 572.756C-48.4334 520.573 -21.1035 482.396 13.6563 455.082C48.4079 427.773 90.5329 411.364 137.583 402.623C231.645 385.149 345.574 398.301 460.071 416.503C485.625 420.565 511.207 424.878 536.606 429.161C625.086 444.081 711.349 458.627 786.505 460.873C883.269 463.765 961.147 446.245 1001.64 383.358C1019.03 356.349 1031.56 331.708 1040.28 309.582C1020.62 267.903 1012.57 236.225 1011.4 213.88C1010.57 198.14 1013.15 186.913 1017.61 180.099C1019.85 176.681 1022.58 174.349 1025.61 173.156C1028.65 171.961 1031.92 171.942 1035.15 173.029C1041.59 175.191 1047.87 181.694 1052.41 191.989C1056.96 202.313 1059.82 216.57 1059.36 234.494C1058.83 254.853 1054.01 279.975 1042.46 309.509C1050.42 326.315 1060.29 344.765 1072.37 364.906C1093.37 399.92 1120.64 420.385 1152.05 429.163C1183.49 437.948 1219.17 435.054 1257.01 423.151C1303.41 408.551 1352.94 380.43 1401.64 343.887C1391.18 341.99 1382.07 338.979 1374.2 334.959C1346.23 320.659 1334.33 293.741 1334.21 259.671C1334.09 225.639 1345.7 184.323 1364.87 140.849C1403.22 53.8856 1471.96 -42.0706 1538.45 -106.358C1571.69 -138.494 1604.45 -162.789 1632.62 -174.056C1646.72 -179.691 1659.74 -182.097 1671.14 -180.531ZM1403.83 342.237C1433.81 319.571 1463.46 293.737 1491.84 265.928C1566.98 192.313 1633.16 104.95 1673.24 26.098C1693.28 -13.3307 1706.77 -50.587 1711.61 -82.9037C1716.45 -115.232 1712.62 -142.481 1698.19 -162.057C1691.03 -171.778 1681.77 -177.052 1670.87 -178.55C1659.93 -180.052 1647.28 -177.76 1633.37 -172.199C1605.54 -161.074 1573.01 -136.989 1539.84 -104.921C1473.52 -40.801 1404.94 54.9441 1366.7 141.656C1347.58 185.02 1336.09 226.037 1336.21 259.664C1336.33 293.255 1348.01 319.326 1375.11 333.178C1383.24 337.332 1392.77 340.399 1403.83 342.237ZM1041.28 307.009C1052.26 278.43 1056.85 254.133 1057.36 234.442C1057.81 216.746 1054.98 202.794 1050.58 192.795C1046.16 182.768 1040.21 176.836 1034.52 174.925C1031.69 173.975 1028.91 174.009 1026.35 175.018C1023.77 176.029 1021.35 178.05 1019.29 181.195C1015.15 187.506 1012.58 198.241 1013.39 213.775C1014.53 235.487 1022.28 266.345 1041.28 307.009Z" fill="white"/>
<circle cx="576" cy="437.85" r="8" fill="white"/>
</svg>
