<svg width="500" height="500" viewBox="0 0 500 500" fill="none" xmlns="http://www.w3.org/2000/svg">
<rect width="500" height="500" fill="#F8F8F8"/>
<path d="M197.447 270.144C210.669 283.789 229.172 292.322 249.661 292.322C289.709 292.322 322.322 259.709 322.322 219.661C322.322 179.613 289.709 147 249.661 147C209.613 147 177 179.613 177 219.661C177 238.756 184.435 256.161 196.517 269.13C196.771 269.552 197.109 269.848 197.447 270.144ZM249.661 283.958C233.862 283.958 219.329 278.213 208.134 268.708C226.976 262.455 233.946 254.851 236.523 249.782C240.114 251.345 244.127 252.19 248.563 252.232C248.647 252.232 248.774 252.232 248.859 252.232C248.901 252.232 249.154 252.232 249.239 252.232C249.323 252.232 249.45 252.232 249.534 252.232C254.35 252.148 258.702 251.176 262.461 249.359C264.869 254.429 271.713 262.286 291.103 268.708C279.951 278.213 265.461 283.958 249.661 283.958ZM226.173 206.227C226.173 206.143 226.173 206.058 226.173 205.974C227.187 183.964 243.409 182.232 248.394 182.232C248.605 182.232 248.774 182.232 248.901 182.232C249.028 182.232 249.112 182.232 249.239 182.232C249.365 182.232 249.492 182.232 249.746 182.232C254.688 182.232 270.953 183.964 271.966 205.974C271.966 206.058 271.966 206.143 271.966 206.227C272.009 206.439 274.079 226.801 264.574 237.489C260.814 241.713 255.787 243.825 249.239 243.868C249.197 243.868 249.112 243.868 249.112 243.868C249.07 243.868 249.028 243.868 248.985 243.868C242.395 243.783 237.41 241.713 233.65 237.489C224.103 226.885 226.131 206.439 226.173 206.227ZM249.661 155.364C285.105 155.364 313.958 184.218 313.958 219.661C313.958 235.883 307.875 250.753 297.947 262.075C270.657 254.133 269.601 244.501 269.601 244.374C269.601 244.543 269.601 244.586 269.601 244.586H269.305C269.812 244.079 270.319 243.572 270.826 243.023C282.443 229.969 280.5 207.621 280.289 205.425C279.148 182.105 263.137 173.826 249.746 173.826C249.492 173.826 249.239 173.826 249.07 173.826C248.901 173.826 248.69 173.826 248.394 173.826C235.002 173.826 218.949 182.105 217.851 205.425C217.64 207.579 215.739 229.927 227.314 243.023C227.99 243.783 228.708 244.501 229.426 245.177C228.539 247.627 224.061 255.4 201.375 262.033C191.406 250.711 185.364 235.883 185.364 219.661C185.364 184.218 214.218 155.364 249.661 155.364Z" fill="#2C2F33"/>
<path d="M196.602 324.64H302.679C305.002 324.64 306.861 322.781 306.861 320.458C306.861 318.134 305.002 316.275 302.679 316.275H196.602C194.278 316.275 192.419 318.134 192.419 320.458C192.419 322.739 194.32 324.64 196.602 324.64Z" fill="#1E4391"/>
<path d="M288.231 349.817C288.231 347.494 286.372 345.635 284.048 345.635H215.274C212.95 345.635 211.092 347.494 211.092 349.817C211.092 352.141 212.95 354 215.274 354H284.091C286.372 354 288.231 352.099 288.231 349.817Z" fill="#1E4391"/>
</svg>
